<svg width="10" height="15" viewBox="0 0 10 15" fill="none" xmlns="http://www.w3.org/2000/svg">
<path d="M8.92974 7.00125L0.248424 0.0337945C0.22574 0.0154432 0.198478 0.00403871 0.16977 0.000890585C0.141062 -0.00225754 0.112072 0.0029784 0.086129 0.0159972C0.0601864 0.029016 0.0383436 0.0492897 0.0231087 0.0744898C0.0078738 0.0996898 -0.000135212 0.128794 1.72707e-06 0.158461L1.72707e-06 1.6881C1.72707e-06 1.78506 0.0442943 1.87806 0.117473 1.93743L7.0502 7.49992L0.117473 13.0624C0.0423685 13.1218 1.72707e-06 13.2148 1.72707e-06 13.3117L1.72707e-06 14.8414C1.72707e-06 14.974 0.148285 15.0472 0.248424 14.966L8.92974 7.99858C9.00353 7.93944 9.06322 7.86379 9.10427 7.77738C9.14533 7.69097 9.16667 7.59608 9.16667 7.49992C9.16667 7.40376 9.14533 7.30887 9.10427 7.22246C9.06322 7.13605 9.00353 7.06039 8.92974 7.00125Z" fill="black"/>
</svg>
