<svg width="30" height="30" viewBox="0 0 30 30" fill="none" xmlns="http://www.w3.org/2000/svg">
<path d="M13 18.8744L13 19.8942C13 19.9826 13.1132 20.0315 13.1897 19.9774L19.8191 15.3318C19.8754 15.2925 19.921 15.2422 19.9524 15.1847C19.9837 15.1272 20 15.064 20 15C20 14.936 19.9837 14.8728 19.9524 14.8153C19.921 14.7578 19.8754 14.7075 19.8191 14.6682L13.1897 10.0226C13.1118 9.96855 13 10.0174 13 10.1058L13 11.1256C13 11.1903 13.0338 11.2523 13.0897 11.2919L18.3838 14.9993L13.0897 18.7081C13.0338 18.7477 13 18.8097 13 18.8744Z" fill="#575757"/>
<path d="M9 18.8744L9 19.8942C9 19.9826 9.11324 20.0315 9.18971 19.9774L15.8191 15.3318C15.8754 15.2925 15.921 15.2422 15.9524 15.1847C15.9837 15.1272 16 15.064 16 15C16 14.936 15.9837 14.8728 15.9524 14.8153C15.921 14.7578 15.8754 14.7075 15.8191 14.6682L9.18971 10.0226C9.11177 9.96855 9 10.0174 9 10.1058L9 11.1256C9 11.1903 9.03382 11.2523 9.08971 11.2919L14.3838 14.9993L9.08971 18.7081C9.03383 18.7477 9 18.8097 9 18.8744Z" fill="#575757"/>
</svg>
