<svg width="24" height="24" viewBox="0 0 24 24" fill="none" xmlns="http://www.w3.org/2000/svg">
<path d="M12.4531 4.33203C13.8925 4.33203 15.1801 4.73725 16.3164 5.54688C17.4528 6.35653 18.2111 7.41486 18.5898 8.72168C19.741 8.96318 20.6728 9.51661 21.3848 10.3828C22.0969 11.2493 22.4531 12.2368 22.4531 13.3447C22.4525 14.6373 21.9633 15.7311 20.9863 16.626C20.8721 16.7306 20.7545 16.8285 20.6348 16.9209V13.5215C20.6348 13.2943 20.5111 13.0798 20.3164 12.9629L16.4209 10.6582C16.317 10.5998 16.2057 10.5674 16.0889 10.5674C15.9722 10.5675 15.8616 10.5998 15.7578 10.6582L11.8623 12.9629C11.6677 13.0798 11.544 13.2943 11.5439 13.5215V17.9688H6.54395C5.40702 17.9693 4.44064 17.5966 3.64551 16.8506C2.85036 16.1046 2.45312 15.1982 2.45312 14.1328C2.4526 13.1536 2.79694 12.2981 3.48633 11.5664C4.17603 10.8346 5.04439 10.4115 6.08984 10.2979C6.08926 8.63659 6.70637 7.22725 7.94141 6.06934C9.17656 4.91138 10.6804 4.33203 12.4531 4.33203ZM19.3359 13.8916V14.4492L19.2861 14.1738L19.251 13.9785L19.0908 13.8604L18.3145 13.2871L19.3359 13.8916Z" fill="black"/>
<path d="M19.4713 13.4569L16.3544 11.6128C16.2713 11.566 16.183 11.54 16.0895 11.54C15.996 11.54 15.9077 11.566 15.8246 11.6128L12.7077 13.4569C12.5518 13.5504 12.4531 13.7219 12.4531 13.9037V17.4881C12.4531 17.6699 12.5518 17.8413 12.7077 17.9348L15.8246 19.779C15.9077 19.8258 15.996 19.8517 16.0895 19.8517C16.183 19.8517 16.2713 19.8258 16.3544 19.779L19.4713 17.9348C19.6272 17.8413 19.7259 17.6699 19.7259 17.4881V13.9037C19.7259 13.7219 19.6272 13.5504 19.4713 13.4569ZM18.6869 17.192L16.0895 18.7297L13.4921 17.192V14.1998L16.0895 12.6621L18.6869 14.1998V17.192Z" fill="black"/>
</svg>
