<svg width="24" height="24" viewBox="0 0 24 24" fill="none" xmlns="http://www.w3.org/2000/svg">
<path d="M12 21.1123C15.8663 21.1123 19 18.8623 19 14.9248C19 13.2373 18.4167 10.4248 16.0833 8.1748C16.375 9.8623 14.625 10.4248 14.625 10.4248C15.5 7.6123 13.1667 3.6748 9.66667 3.1123C10.0832 5.3623 10.25 7.6123 7.33333 9.8623C5.875 10.9873 5 12.9324 5 14.9248C5 18.8623 8.13367 21.1123 12 21.1123ZM12 19.9873C10.0668 19.9873 8.5 18.8623 8.5 16.8936C8.5 16.0498 8.79167 14.6436 9.95833 13.5186C9.8125 14.3623 10.8333 14.9248 10.8333 14.9248C10.3958 13.5186 11.4167 11.2686 13.1667 10.9873C12.9578 12.1123 12.875 13.2373 14.3333 14.3623C15.0625 14.9248 15.5 15.8968 15.5 16.8936C15.5 18.8623 13.9332 19.9873 12 19.9873Z" fill="black"/>
</svg>
