<svg width="14" height="14" viewBox="0 0 14 14" fill="none" xmlns="http://www.w3.org/2000/svg">
<path d="M7 4.50601C6.59812 4.50601 6.22043 4.66243 5.93548 4.94831C5.79546 5.08838 5.68443 5.25485 5.60877 5.43814C5.53311 5.62143 5.49432 5.81791 5.49462 6.01629C5.49462 6.41948 5.65188 6.7984 5.93548 7.08428C6.0751 7.22476 6.24103 7.33615 6.42373 7.41206C6.60642 7.48797 6.80226 7.52688 7 7.52658C7.40188 7.52658 7.77957 7.3688 8.06452 7.08428C8.34946 6.7984 8.50538 6.41948 8.50538 6.01629C8.50538 5.6131 8.34946 5.23418 8.06452 4.94831C7.77957 4.66243 7.40188 4.50601 7 4.50601ZM11.6048 3.99494C11.3518 3.40955 10.987 2.87952 10.5309 2.43477C10.0734 1.986 9.53399 1.62981 8.9422 1.38566C8.32661 1.12945 7.67339 1 7 1C6.32661 1 5.67339 1.12945 5.0578 1.38431C4.46237 1.63108 3.92876 1.98438 3.46909 2.43342C3.01334 2.87842 2.64854 3.40839 2.39516 3.99359C2.13306 4.6004 2 5.24497 2 5.90842C2 6.86043 2.22715 7.8084 2.67339 8.72266C3.03226 9.45758 3.5336 10.1736 4.16532 10.8546C5.24462 12.017 6.37634 12.7276 6.69758 12.9177C6.78876 12.9718 6.89276 13.0002 6.99866 13C7.10349 13 7.20699 12.973 7.29973 12.9177C7.62097 12.7276 8.75269 12.017 9.83199 10.8546C10.4637 10.175 10.9651 9.45758 11.3239 8.72266C11.7728 7.80975 12 6.86313 12 5.90976C12 5.24632 11.8669 4.60175 11.6048 3.99494ZM7 8.38959C5.69355 8.38959 4.63441 7.327 4.63441 6.01629C4.63441 4.70558 5.69355 3.64299 7 3.64299C8.30645 3.64299 9.36559 4.70558 9.36559 6.01629C9.36559 7.327 8.30645 8.38959 7 8.38959Z" fill="black"/>
</svg>
