<svg width="30" height="30" viewBox="0 0 30 30" fill="none" xmlns="http://www.w3.org/2000/svg">
<path d="M17 11.1256V10.1058C17 10.0174 16.8868 9.96855 16.8103 10.0226L10.1809 14.6682C10.1246 14.7075 10.079 14.7578 10.0476 14.8153C10.0163 14.8728 10 14.936 10 15C10 15.064 10.0163 15.1272 10.0476 15.1847C10.079 15.2422 10.1246 15.2925 10.1809 15.3318L16.8103 19.9774C16.8882 20.0315 17 19.9826 17 19.8942V18.8744C17 18.8097 16.9662 18.7477 16.9103 18.7081L11.6162 15.0007L16.9103 11.2919C16.9662 11.2523 17 11.1903 17 11.1256Z" fill="#575757"/>
<path d="M21 11.1256V10.1058C21 10.0174 20.8868 9.96855 20.8103 10.0226L14.1809 14.6682C14.1246 14.7075 14.079 14.7578 14.0476 14.8153C14.0163 14.8728 14 14.936 14 15C14 15.064 14.0163 15.1272 14.0476 15.1847C14.079 15.2422 14.1246 15.2925 14.1809 15.3318L20.8103 19.9774C20.8882 20.0315 21 19.9826 21 19.8942V18.8744C21 18.8097 20.9662 18.7477 20.9103 18.7081L15.6162 15.0007L20.9103 11.2919C20.9662 11.2523 21 11.1903 21 11.1256Z" fill="#575757"/>
</svg>
