<svg width="30" height="30" viewBox="0 0 30 30" fill="none" xmlns="http://www.w3.org/2000/svg">
<mask id="mask0_570_1022" style="mask-type:alpha" maskUnits="userSpaceOnUse" x="3" y="3" width="24" height="24">
<rect x="3" y="3" width="24" height="24" fill="#D9D9D9"/>
</mask>
<g mask="url(#mask0_570_1022)">
<path d="M13.825 25C13.375 25 12.9875 24.85 12.6625 24.55C12.3375 24.25 12.1416 23.8833 12.075 23.45L11.85 21.8C11.6333 21.7167 11.4291 21.6167 11.2375 21.5C11.0458 21.3833 10.8583 21.2583 10.675 21.125L9.12498 21.775C8.70831 21.9583 8.29165 21.975 7.87498 21.825C7.45831 21.675 7.13331 21.4083 6.89998 21.025L5.72498 18.975C5.49165 18.5917 5.42498 18.1833 5.52498 17.75C5.62498 17.3167 5.84998 16.9583 6.19998 16.675L7.52498 15.675C7.50831 15.5583 7.49998 15.4458 7.49998 15.3375V14.6625C7.49998 14.5542 7.50831 14.4417 7.52498 14.325L6.19998 13.325C5.84998 13.0417 5.62498 12.6833 5.52498 12.25C5.42498 11.8167 5.49165 11.4083 5.72498 11.025L6.89998 8.975C7.13331 8.59167 7.45831 8.325 7.87498 8.175C8.29165 8.025 8.70831 8.04167 9.12498 8.225L10.675 8.875C10.8583 8.74167 11.05 8.61667 11.25 8.5C11.45 8.38333 11.65 8.28333 11.85 8.2L12.075 6.55C12.1416 6.11667 12.3375 5.75 12.6625 5.45C12.9875 5.15 13.375 5 13.825 5H16.175C16.625 5 17.0125 5.15 17.3375 5.45C17.6625 5.75 17.8583 6.11667 17.925 6.55L18.15 8.2C18.3666 8.28333 18.5708 8.38333 18.7625 8.5C18.9541 8.61667 19.1416 8.74167 19.325 8.875L20.875 8.225C21.2916 8.04167 21.7083 8.025 22.125 8.175C22.5416 8.325 22.8666 8.59167 23.1 8.975L24.275 11.025C24.5083 11.4083 24.575 11.8167 24.475 12.25C24.375 12.6833 24.15 13.0417 23.8 13.325L22.475 14.325C22.4916 14.4417 22.5 14.5542 22.5 14.6625V15.3375C22.5 15.4458 22.4833 15.5583 22.45 15.675L23.775 16.675C24.125 16.9583 24.35 17.3167 24.45 17.75C24.55 18.1833 24.4833 18.5917 24.25 18.975L23.05 21.025C22.8166 21.4083 22.4916 21.675 22.075 21.825C21.6583 21.975 21.2416 21.9583 20.825 21.775L19.325 21.125C19.1416 21.2583 18.95 21.3833 18.75 21.5C18.55 21.6167 18.35 21.7167 18.15 21.8L17.925 23.45C17.8583 23.8833 17.6625 24.25 17.3375 24.55C17.0125 24.85 16.625 25 16.175 25H13.825ZM15.05 18.5C16.0166 18.5 16.8416 18.1583 17.525 17.475C18.2083 16.7917 18.55 15.9667 18.55 15C18.55 14.0333 18.2083 13.2083 17.525 12.525C16.8416 11.8417 16.0166 11.5 15.05 11.5C14.0666 11.5 13.2375 11.8417 12.5625 12.525C11.8875 13.2083 11.55 14.0333 11.55 15C11.55 15.9667 11.8875 16.7917 12.5625 17.475C13.2375 18.1583 14.0666 18.5 15.05 18.5Z" fill="#5D676F"/>
</g>
</svg>
