<svg width="25" height="25" viewBox="0 0 25 25" fill="none" xmlns="http://www.w3.org/2000/svg">
<circle cx="12.5" cy="12.5" r="12.5" fill="white" fill-opacity="0.95"/>
<path d="M14.8745 4.1875C11.5952 4.1875 8.93699 6.8457 8.93699 10.125C8.93699 11.498 9.40379 12.7617 10.185 13.7676L9.3823 14.5703L8.16551 13.3535C8.13576 13.3244 8.0958 13.3081 8.05418 13.3081C8.01256 13.3081 7.9726 13.3244 7.94285 13.3535L7.16551 14.1309C7.1364 14.1606 7.1201 14.2006 7.1201 14.2422C7.1201 14.2838 7.1364 14.3238 7.16551 14.3535L8.3823 15.5703L7.50535 16.4473L6.28855 15.2305C6.25881 15.2014 6.21885 15.1851 6.17723 15.1851C6.13561 15.1851 6.09565 15.2014 6.0659 15.2305L5.28855 16.0078C5.25945 16.0376 5.24315 16.0775 5.24315 16.1191C5.24315 16.1608 5.25945 16.2007 5.28855 16.2305L6.50535 17.4473L5.22996 18.7227C5.20088 18.752 5.18457 18.7917 5.18457 18.833C5.18457 18.8743 5.20088 18.914 5.22996 18.9434L6.05613 19.7695C6.11668 19.8301 6.21629 19.8301 6.27684 19.7695L11.23 14.8164C12.2726 15.6251 13.5549 16.0636 14.8745 16.0625C18.1538 16.0625 20.812 13.4043 20.812 10.125C20.812 6.8457 18.1538 4.1875 14.8745 4.1875ZM18.0229 13.2734C17.1831 14.1152 16.0639 14.5781 14.8745 14.5781C13.685 14.5781 12.5659 14.1152 11.7261 13.2734C10.8843 12.4336 10.4214 11.3145 10.4214 10.125C10.4214 8.93555 10.8843 7.81641 11.7261 6.97656C12.5659 6.13477 13.685 5.67188 14.8745 5.67188C16.0639 5.67188 17.1831 6.13477 18.0229 6.97656C18.8647 7.81641 19.3276 8.93555 19.3276 10.125C19.3276 11.3145 18.8647 12.4336 18.0229 13.2734Z" fill="black" fill-opacity="0.45"/>
</svg>
