<svg width="25" height="25" viewBox="0 0 25 25" fill="none" xmlns="http://www.w3.org/2000/svg">
<circle cx="12.5" cy="12.5" r="12.5" fill="white" fill-opacity="0.95"/>
<path d="M19.8773 18.855L15.0587 14.0363C15.8064 13.0696 16.2109 11.8877 16.2109 10.6445C16.2109 9.15645 15.6302 7.76113 14.58 6.70908C13.5298 5.65703 12.1308 5.07812 10.6445 5.07812C9.1583 5.07812 7.75928 5.65889 6.70908 6.70908C5.65703 7.75928 5.07812 9.15645 5.07812 10.6445C5.07812 12.1308 5.65889 13.5298 6.70908 14.58C7.75928 15.632 9.15645 16.2109 10.6445 16.2109C11.8877 16.2109 13.0678 15.8064 14.0345 15.0605L18.8531 19.8773C18.8673 19.8915 18.884 19.9027 18.9025 19.9103C18.921 19.918 18.9408 19.9219 18.9607 19.9219C18.9807 19.9219 19.0005 19.918 19.019 19.9103C19.0375 19.9027 19.0542 19.8915 19.0684 19.8773L19.8773 19.0702C19.8915 19.0561 19.9027 19.0393 19.9103 19.0208C19.918 19.0024 19.9219 18.9826 19.9219 18.9626C19.9219 18.9426 19.918 18.9228 19.9103 18.9044C19.9027 18.8859 19.8915 18.8691 19.8773 18.855ZM13.5836 13.5836C12.7969 14.3685 11.7541 14.8008 10.6445 14.8008C9.53496 14.8008 8.49219 14.3685 7.70547 13.5836C6.92061 12.7969 6.48828 11.7541 6.48828 10.6445C6.48828 9.53496 6.92061 8.49033 7.70547 7.70547C8.49219 6.92061 9.53496 6.48828 10.6445 6.48828C11.7541 6.48828 12.7987 6.91875 13.5836 7.70547C14.3685 8.49219 14.8008 9.53496 14.8008 10.6445C14.8008 11.7541 14.3685 12.7987 13.5836 13.5836Z" fill="black" fill-opacity="0.45"/>
</svg>
