<svg width="24" height="24" viewBox="0 0 24 24" fill="none" xmlns="http://www.w3.org/2000/svg">
<path d="M12 4C13.4393 4 14.7269 4.4159 15.8633 5.24707C16.9996 6.07827 17.7579 7.1643 18.1367 8.50586C19.288 8.75377 20.2196 9.32263 20.9316 10.2119C21.6438 11.1015 22 12.1155 22 13.2529C21.9994 14.58 21.5102 15.7024 20.5332 16.6211C20.3618 16.7823 20.1838 16.9286 20 17.0615V13.1279C19.9999 12.8874 19.8774 12.6608 19.6846 12.5371L15.8281 10.0967C15.7253 10.0348 15.6157 10 15.5 10C15.3843 10 15.2747 10.0348 15.1719 10.0967L14.6162 10.4473L14.5166 10.3662L14.2031 10.5977L13.1436 11.3789L11.3154 12.5371C11.1226 12.6608 11.0001 12.8874 11 13.1279V17.8721C11 17.9154 11.005 17.9581 11.0127 18H6.09082C4.95389 18.0006 3.98751 17.6174 3.19238 16.8516C2.39745 16.0858 2.00006 15.156 2 14.0625C1.99939 13.0569 2.34362 12.178 3.0332 11.4268C3.7229 10.6754 4.59126 10.2417 5.63672 10.125C5.63611 8.41938 6.25313 6.97201 7.48828 5.7832C8.72342 4.59443 10.2273 4 12 4ZM18.7139 13.5195V17.4795L18.043 17.9033C17.7812 17.9528 17.5112 17.9834 17.2324 17.9941L18.3506 16.8945L18.5352 16.7139L18.4932 16.458L17.9932 13.3809L17.9629 13.1953L17.8174 13.0752L17.1611 12.5361L18.7139 13.5195Z" fill="white"/>
<path d="M18.755 13.0756L15.755 11.0788C15.675 11.0281 15.59 11 15.5 11C15.41 11 15.325 11.0281 15.245 11.0788L12.245 13.0756C12.095 13.1769 12 13.3625 12 13.5594V17.4406C12 17.6375 12.095 17.8231 12.245 17.9244L15.245 19.9213C15.325 19.9719 15.41 20 15.5 20C15.59 20 15.675 19.9719 15.755 19.9213L18.755 17.9244C18.905 17.8231 19 17.6375 19 17.4406V13.5594C19 13.3625 18.905 13.1769 18.755 13.0756ZM18 17.12L15.5 18.785L13 17.12V13.88L15.5 12.215L18 13.88V17.12Z" fill="white"/>
</svg>
