<svg width="19" height="19" viewBox="0 0 19 19" fill="none" xmlns="http://www.w3.org/2000/svg">
<path d="M15.8264 5.26138L11.8526 1.17835C11.7418 1.06451 11.5922 1 11.4352 1H3.59091C3.26406 1 3 1.27132 3 1.60714V17.3929C3 17.7287 3.26406 18 3.59091 18H15.4091C15.7359 18 16 17.7287 16 17.3929V5.69208C16 5.5308 15.9372 5.37522 15.8264 5.26138ZM14.6372 5.97098H11.1619V2.40022L14.6372 5.97098ZM14.6705 16.6339H4.32955V2.36607H9.90625V6.46429C9.90625 6.67563 9.98796 6.87832 10.1334 7.02776C10.2789 7.1772 10.4761 7.26116 10.6818 7.26116H14.6705V16.6339ZM9.35227 11.5112H5.95455C5.8733 11.5112 5.80682 11.5795 5.80682 11.6629V12.5737C5.80682 12.6571 5.8733 12.7254 5.95455 12.7254H9.35227C9.43352 12.7254 9.5 12.6571 9.5 12.5737V11.6629C9.5 11.5795 9.43352 11.5112 9.35227 11.5112ZM5.80682 9.08259V9.9933C5.80682 10.0768 5.8733 10.1451 5.95455 10.1451H13.0455C13.1267 10.1451 13.1932 10.0768 13.1932 9.9933V9.08259C13.1932 8.99911 13.1267 8.9308 13.0455 8.9308H5.95455C5.8733 8.9308 5.80682 8.99911 5.80682 9.08259Z" fill="#333333"/>
</svg>
