<svg width="33" height="33" viewBox="0 0 33 33" fill="none" xmlns="http://www.w3.org/2000/svg">
<path d="M27.8147 16.7098H16.2905V5.18555C16.2905 5.04376 16.1745 4.92774 16.0327 4.92774H15.1948C13.5038 4.92601 11.8292 5.2582 10.2669 5.90524C8.70457 6.55228 7.28542 7.50143 6.09082 8.69825C4.91466 9.87077 3.97774 11.2608 3.33223 12.791C2.66191 14.3798 2.32031 16.0652 2.32031 17.8055C2.32031 19.5457 2.66191 21.2279 3.33223 22.8167C3.97998 24.3475 4.90811 25.7268 6.09082 26.9095C7.27354 28.0922 8.64961 29.0203 10.1836 29.6681C11.7696 30.3409 13.4752 30.6862 15.198 30.6832C16.889 30.6849 18.5637 30.3527 20.126 29.7057C21.6883 29.0587 23.1075 28.1095 24.302 26.9127C25.4848 25.73 26.4129 24.3539 27.0606 22.8199C27.7335 21.2339 28.0788 19.5283 28.0758 17.8055V16.9676C28.0726 16.8258 27.9565 16.7098 27.8147 16.7098Z" fill="#575757"/>
<path d="M30.5684 14.9397L30.4846 14.0309C30.2106 11.0629 28.8926 8.26238 26.7721 6.14831C24.6501 4.03037 21.8553 2.71962 18.8701 2.44226L17.9581 2.35847C17.8485 2.3488 17.7519 2.40681 17.7067 2.49705C17.6888 2.53318 17.6789 2.57275 17.6777 2.61306V14.9913C17.6777 15.1331 17.7937 15.2491 17.9355 15.2491L30.3105 15.2169C30.3492 15.2169 30.3847 15.2072 30.4201 15.1943C30.4676 15.1717 30.5071 15.1354 30.5336 15.0899C30.56 15.0445 30.5722 14.9921 30.5684 14.9397ZM19.8627 13.0641V4.7948C21.8928 5.2197 23.7557 6.22507 25.2252 7.68874C26.6979 9.15828 27.7066 11.0274 28.1256 13.0416L19.8627 13.0641Z" fill="#575757"/>
</svg>
