<svg width="24" height="24" viewBox="0 0 24 24" fill="none" xmlns="http://www.w3.org/2000/svg">
<path d="M15.125 19.7725V22.3975H13.375V19.7725C13.375 18.81 12.5875 18.0225 11.625 18.0225H9C6.55 18.0225 4.625 16.0975 4.625 13.6475C4.625 12.5975 4.975 11.7225 5.5875 10.935C3.575 10.585 2 8.74746 2 6.64746C2 6.03496 2.175 5.42246 2.35 4.89746H4.45C4.0125 5.33496 3.75 5.94746 3.75 6.64746C3.75 8.13496 4.8875 9.27246 6.375 9.27246H9V11.0225C7.5125 11.0225 6.375 12.16 6.375 13.6475C6.375 15.135 7.5125 16.2725 9 16.2725H11.625C13.55 16.2725 15.125 17.8475 15.125 19.7725ZM15.9125 10.935C17.925 10.585 19.5 8.74746 19.5 6.64746C19.5 6.03496 19.325 5.42246 19.15 4.89746H17.05C17.4875 5.33496 17.75 5.94746 17.75 6.64746C17.75 8.13496 16.6125 9.27246 15.125 9.27246H14.075C14.1625 9.53496 14.25 9.79746 14.25 10.1475C14.25 11.635 13.1125 12.7725 11.625 12.7725V14.5225C14.075 14.5225 16 16.4475 16 18.8975V22.3975H17.75V18.8975C17.75 16.535 16.4375 14.5225 14.425 13.4725C15.2125 12.86 15.7375 11.985 15.9125 10.935Z" fill="black"/>
</svg>
