<svg width="20" height="20" viewBox="0 0 20 20" fill="none" xmlns="http://www.w3.org/2000/svg">
<path fill-rule="evenodd" clip-rule="evenodd" d="M10 1.25C14.832 1.25 18.75 5.16797 18.75 10C18.75 14.832 14.832 18.75 10 18.75C5.16797 18.75 1.25 14.832 1.25 10C1.25 5.16797 5.16797 1.25 10 1.25ZM12.4996 6.61758C12.4991 6.61771 12.4981 6.61805 12.4973 6.61885L10 9.11611L7.50273 6.61885C7.50191 6.61805 7.50156 6.61783 7.50109 6.6177C7.50065 6.61756 7.50154 6.61756 7.50109 6.6177C7.50066 6.61783 7.49893 6.61805 7.49812 6.61885L6.61883 7.49812C6.61805 7.49891 6.61785 7.4993 6.6177 7.49975C6.61756 7.4993 6.61756 7.50019 6.6177 7.49975L6.61789 7.50154C6.61815 7.50198 6.61847 7.50237 6.61885 7.50272L9.11611 10L6.61885 12.4973C6.61805 12.4981 6.61783 12.4985 6.6177 12.4989C6.61756 12.4985 6.61756 12.4994 6.6177 12.4989C6.61783 12.4994 6.61805 12.5011 6.61885 12.5019L7.49812 13.3812C7.49891 13.382 7.4993 13.3822 7.49975 13.3823C7.4993 13.3825 7.50019 13.3825 7.49975 13.3823C7.50018 13.3822 7.50191 13.382 7.50272 13.3812L10 10.8839L12.4973 13.3812C12.4981 13.382 12.4985 13.3822 12.4989 13.3823C12.4985 13.3824 12.4994 13.3824 12.4989 13.3823C12.4994 13.3822 12.5011 13.382 12.5019 13.3812L13.3812 12.5019C13.382 12.5011 13.3822 12.5007 13.3823 12.5003C13.3825 12.4998 13.3825 12.5007 13.3823 12.5003L13.3821 12.4985C13.3819 12.498 13.3815 12.4976 13.3812 12.4973L10.8839 10L13.3812 7.50273C13.382 7.50191 13.3822 7.50156 13.3823 7.50109C13.3824 7.50065 13.3824 7.50154 13.3823 7.50109C13.3822 7.50066 13.382 7.49893 13.3812 7.49812L12.5019 6.61883C12.5014 6.61832 12.5002 6.61781 12.4996 6.61758C12.5 6.61744 12.4991 6.61744 12.4996 6.61758Z" fill="#818181"/>
</svg>
