<svg width="24" height="24" viewBox="0 0 24 24" fill="none" xmlns="http://www.w3.org/2000/svg">
<path d="M19.1933 3.31299C19.6068 2.89592 20.2769 2.89583 20.6904 3.31299C21.1037 3.7302 21.1038 4.40658 20.6904 4.82373L13.497 12.0806L20.5302 19.1763L20.6035 19.2573C20.9425 19.6769 20.9178 20.296 20.5302 20.687C20.1426 21.0779 19.529 21.1032 19.1132 20.7612L19.0331 20.687L11.9999 13.5913L4.96771 20.687L4.88666 20.7612C4.47078 21.103 3.85716 21.078 3.46967 20.687C3.08222 20.296 3.05753 19.6769 3.39642 19.2573L3.46967 19.1763L10.5029 12.0796L3.31049 4.82373C2.89698 4.40653 2.89698 3.73019 3.31049 3.31299C3.72399 2.89583 4.39406 2.8958 4.80756 3.31299L11.9999 10.5698L19.1933 3.31299Z" fill="#353C40"/>
</svg>
