<svg width="15" height="21" viewBox="0 0 15 21" fill="none" xmlns="http://www.w3.org/2000/svg">
<path d="M5 1C3.15972 1 1.66667 2.57164 1.66667 4.50877V11.8151C0.642361 12.7763 0 14.1798 0 15.7368C0 18.6425 2.23958 21 5 21C7.76042 21 10 18.6425 10 15.7368C10 14.1798 9.35764 12.7763 8.33333 11.8151V4.50877C8.33333 2.57164 6.84028 1 5 1ZM7.22222 15.7368C7.22222 17.027 6.22569 18.076 5 18.076C3.77431 18.076 2.77778 17.027 2.77778 15.7368C2.77778 14.7537 3.35069 13.913 4.16667 13.5694V10.1813C4.16667 9.69518 4.53819 9.30409 5 9.30409C5.46181 9.30409 5.83333 9.69518 5.83333 10.1813V13.5694C6.64931 13.9167 7.22222 14.7573 7.22222 15.7368Z" fill="white"/>
<path d="M12.5 0.75C13.4665 0.75 14.25 1.5335 14.25 2.5C14.25 3.4665 13.4665 4.25 12.5 4.25C11.5335 4.25 10.75 3.4665 10.75 2.5C10.75 1.5335 11.5335 0.75 12.5 0.75Z" stroke="white" stroke-width="1.5"/>
</svg>
