<svg width="20" height="20" viewBox="0 0 20 20" fill="none" xmlns="http://www.w3.org/2000/svg">
<path d="M14.9551 9.50797L6.15039 2.63101C6.12738 2.6129 6.09974 2.60164 6.07062 2.59854C6.0415 2.59543 6.0121 2.6006 5.98579 2.61345C5.95948 2.6263 5.93733 2.64631 5.92187 2.67118C5.90642 2.69605 5.8983 2.72478 5.89844 2.75406V4.26382C5.89844 4.35953 5.94336 4.45132 6.01758 4.50992L13.0488 10.0002L6.01758 15.4904C5.94141 15.549 5.89844 15.6408 5.89844 15.7365V17.2462C5.89844 17.3771 6.04883 17.4494 6.15039 17.3693L14.9551 10.4923C15.0299 10.434 15.0904 10.3593 15.1321 10.274C15.1737 10.1887 15.1953 10.0951 15.1953 10.0002C15.1953 9.90524 15.1737 9.81158 15.1321 9.7263C15.0904 9.64101 15.0299 9.56634 14.9551 9.50797Z" fill="black" fill-opacity="0.45"/>
</svg>
