<svg width="20" height="20" viewBox="0 0 20 20" fill="none" xmlns="http://www.w3.org/2000/svg">
<path d="M10.25 5.5V3.75H4.75V16.25H10.25V14C10.25 13.5858 10.5858 13.25 11 13.25C11.4142 13.25 11.75 13.5858 11.75 14V17C11.75 17.4142 11.4142 17.75 11 17.75H4C3.58579 17.75 3.25 17.4142 3.25 17V3C3.25 2.58579 3.58579 2.25 4 2.25H11C11.4142 2.25 11.75 2.58579 11.75 3V5.5C11.75 5.91421 11.4142 6.25 11 6.25C10.5858 6.25 10.25 5.91421 10.25 5.5Z" fill="#5A6670"/>
<path d="M17.9996 10L14.3633 6V14L17.9996 10Z" fill="#5A6670"/>
<path d="M14.0928 5.30103C14.3816 5.18935 14.7095 5.26635 14.918 5.49536L18.5547 9.49536C18.8147 9.78143 18.8147 10.2191 18.5547 10.5051L14.918 14.5051C14.7095 14.734 14.3816 14.8111 14.0928 14.6995C13.8039 14.5877 13.6134 14.31 13.6133 14.0002V12.0002H9C8.44779 12.0002 8.00012 11.5524 8 11.0002V9.00024C8 8.44796 8.44772 8.00024 9 8.00024H13.6133V6.00024L13.6221 5.88599C13.6624 5.62368 13.84 5.39886 14.0928 5.30103ZM15.1133 12.0002V12.0598L15.167 12.0002H15.1133ZM16 11.0842L16.9854 10.0002L16 8.91528V11.0842ZM15.1133 8.00024H15.168L15.1133 7.9397V8.00024Z" fill="#5A6670"/>
</svg>
