<svg width="32" height="32" viewBox="0 0 32 32" fill="none" xmlns="http://www.w3.org/2000/svg">
<path d="M18.6845 11.5116H14.3155C13.7785 11.5116 13.3447 11.9425 13.3447 12.4759V28.8687C13.3447 29.4021 13.7785 29.833 14.3155 29.833H18.6845C19.2215 29.833 19.6553 29.4021 19.6553 28.8687V12.4759C19.6553 11.9425 19.2215 11.5116 18.6845 11.5116ZM28.0291 2.83301H23.6602C23.1232 2.83301 22.6893 3.26392 22.6893 3.79729V28.8687C22.6893 29.4021 23.1232 29.833 23.6602 29.833H28.0291C28.5661 29.833 29 29.4021 29 28.8687V3.79729C29 3.26392 28.5661 2.83301 28.0291 2.83301ZM9.33981 20.1901H4.97087C4.43386 20.1901 4 20.6211 4 21.1544V28.8687C4 29.4021 4.43386 29.833 4.97087 29.833H9.33981C9.87682 29.833 10.3107 29.4021 10.3107 28.8687V21.1544C10.3107 20.6211 9.87682 20.1901 9.33981 20.1901Z" fill="#575757"/>
</svg>
