<svg width="33" height="33" viewBox="0 0 33 33" fill="none" xmlns="http://www.w3.org/2000/svg">
<path d="M30.8648 28.4694L17.8656 5.5102C17.6718 5.16901 17.3375 5 17 5C16.6625 5 16.325 5.16901 16.1344 5.5102L3.13516 28.4694C2.75081 29.1518 3.23203 30 4.00074 30H29.9993C30.768 30 31.2492 29.1518 30.8648 28.4694ZM16.0001 14.4388C16.0001 14.2985 16.1125 14.1837 16.25 14.1837H17.75C17.8874 14.1837 17.9999 14.2985 17.9999 14.4388V20.3061C17.9999 20.4464 17.8874 20.5612 17.75 20.5612H16.25C16.1125 20.5612 16.0001 20.4464 16.0001 20.3061V14.4388ZM17 25.6633C16.6075 25.6551 16.2338 25.4902 15.959 25.2041C15.6843 24.9179 15.5304 24.5333 15.5304 24.1327C15.5304 23.732 15.6843 23.3474 15.959 23.0612C16.2338 22.7751 16.6075 22.6102 17 22.602C17.3925 22.6102 17.7662 22.7751 18.041 23.0612C18.3157 23.3474 18.4696 23.732 18.4696 24.1327C18.4696 24.5333 18.3157 24.9179 18.041 25.2041C17.7662 25.4902 17.3925 25.6551 17 25.6633Z" fill="#575757"/>
</svg>
