<svg width="30" height="30" viewBox="0 0 30 30" fill="none" xmlns="http://www.w3.org/2000/svg">
<path d="M15.6624 10.3548V8.54839H9.83885V21.4516H15.6624V19.129C15.6624 18.7015 16.0179 18.3548 16.4565 18.3548C16.8951 18.3548 17.2506 18.7015 17.2506 19.129V22.2258C17.2506 22.6534 16.8951 23 16.4565 23H9.04473C8.60615 23 8.25061 22.6534 8.25061 22.2258V7.77419C8.25061 7.34662 8.60615 7 9.04473 7H16.4565C16.8951 7 17.2506 7.34662 17.2506 7.77419V10.3548C17.2506 10.7824 16.8951 11.129 16.4565 11.129C16.0179 11.129 15.6624 10.7824 15.6624 10.3548Z" fill="#5A6670"/>
<path d="M24 15L21 11V19L24 15Z" fill="#5A6670"/>
<path d="M19.942 10.1489C20.24 10.0337 20.5784 10.113 20.7936 10.3491L24.5475 14.479C24.8159 14.7743 24.8159 15.2257 24.5475 15.521L20.7936 19.6499C20.5784 19.8862 20.2401 19.9663 19.942 19.8511C19.6438 19.7357 19.4469 19.4482 19.4469 19.1284V17.064H14.6852C14.1151 17.064 13.653 16.6018 13.653 16.0317V13.9673C13.6531 13.3973 14.1152 12.9351 14.6852 12.9351H19.4469V10.8706L19.4567 10.7524C19.4985 10.4819 19.6812 10.2499 19.942 10.1489ZM20.9957 17.064V17.1255L21.0514 17.064H20.9957ZM21.9108 16.1187L22.9283 14.9995L21.9108 13.8794V16.1187ZM20.9957 12.9351H21.0524L20.9957 12.8726V12.9351Z" fill="#5A6670"/>
</svg>
