<svg width="33" height="33" viewBox="0 0 33 33" fill="none" xmlns="http://www.w3.org/2000/svg">
<path fill-rule="evenodd" clip-rule="evenodd" d="M5.15625 4.64026H14.9531C15.2379 4.64026 15.4687 4.8711 15.4687 5.15589V14.9528C15.4687 15.2375 15.2379 15.4684 14.9531 15.4684H5.15625C4.87146 15.4684 4.64062 15.2375 4.64062 14.9528V5.15589C4.64062 4.8711 4.87146 4.64026 5.15625 4.64026ZM23.3421 3.82387L29.1758 9.65752C29.3771 9.85887 29.3771 10.1853 29.1758 10.3867L23.3421 16.2203C23.1408 16.4217 22.8143 16.4217 22.6129 16.2203L16.7793 10.3867C16.578 10.1853 16.578 9.85887 16.7793 9.65749L22.613 3.82387C22.8143 3.62251 23.1408 3.62251 23.3421 3.82387ZM5.15625 17.5309H14.9531C15.2379 17.5309 15.4687 17.7617 15.4687 18.0465V27.8434C15.4687 28.1282 15.2379 28.359 14.9531 28.359H5.15625C4.87146 28.359 4.64062 28.1282 4.64062 27.8434V18.0465C4.64062 17.7617 4.87146 17.5309 5.15625 17.5309ZM18.0469 17.5309H27.8437C28.1285 17.5309 28.3594 17.7617 28.3594 18.0465V27.8434C28.3594 28.1282 28.1285 28.359 27.8437 28.359H18.0469C17.7621 28.359 17.5312 28.1282 17.5312 27.8434V18.0465C17.5312 17.7617 17.7621 17.5309 18.0469 17.5309Z" fill="#575757"/>
</svg>
