<svg width="50" height="50" viewBox="0 0 50 50" fill="none" xmlns="http://www.w3.org/2000/svg">
<path d="M22.6575 35.1562C22.6575 35.7779 22.9044 36.374 23.344 36.8135C23.7835 37.2531 24.3796 37.5 25.0012 37.5C25.6228 37.5 26.219 37.2531 26.6585 36.8135C27.0981 36.374 27.345 35.7779 27.345 35.1562C27.345 34.5346 27.0981 33.9385 26.6585 33.499C26.219 33.0594 25.6228 32.8125 25.0012 32.8125C24.3796 32.8125 23.7835 33.0594 23.344 33.499C22.9044 33.9385 22.6575 34.5346 22.6575 35.1562ZM23.4387 20.3125V29.2969C23.4387 29.5117 23.6145 29.6875 23.8294 29.6875H26.1731C26.388 29.6875 26.5637 29.5117 26.5637 29.2969V20.3125C26.5637 20.0977 26.388 19.9219 26.1731 19.9219H23.8294C23.6145 19.9219 23.4387 20.0977 23.4387 20.3125ZM46.6663 41.7969L26.3538 6.64062C26.051 6.11816 25.5286 5.85938 25.0012 5.85938C24.4739 5.85938 23.9465 6.11816 23.6487 6.64062L3.3362 41.7969C2.73561 42.8418 3.48757 44.1406 4.68874 44.1406H45.3137C46.5149 44.1406 47.2669 42.8418 46.6663 41.7969ZM8.40944 40.4346L25.0012 11.7139L41.593 40.4346H8.40944Z" fill="#D50C1D"/>
</svg>
