<svg width="25" height="25" viewBox="0 0 25 25" fill="none" xmlns="http://www.w3.org/2000/svg">
<circle cx="12.5" cy="12.5" r="12.5" fill="white" fill-opacity="0.95"/>
<path d="M18.9292 17.1684C18.5792 16.3393 18.0713 15.5862 17.4337 14.9511C16.7981 14.3141 16.0452 13.8063 15.2165 13.4556C15.209 13.4519 15.2016 13.45 15.1942 13.4463C16.3501 12.6113 17.1016 11.2513 17.1016 9.7168C17.1016 7.1748 15.042 5.11523 12.5 5.11523C9.95805 5.11523 7.89848 7.1748 7.89848 9.7168C7.89848 11.2513 8.64995 12.6113 9.80591 13.4481C9.79848 13.4519 9.79106 13.4537 9.78364 13.4574C8.95239 13.8081 8.20649 14.3109 7.56636 14.9529C6.92939 15.5886 6.42154 16.3415 6.07085 17.1702C5.72633 17.9815 5.54052 18.8514 5.52348 19.7326C5.52299 19.7524 5.52646 19.7721 5.5337 19.7906C5.54094 19.809 5.55179 19.8258 5.56563 19.84C5.57946 19.8542 5.59599 19.8654 5.61425 19.8731C5.6325 19.8808 5.65211 19.8848 5.67192 19.8848H6.7852C6.86684 19.8848 6.93178 19.8198 6.93364 19.74C6.97075 18.3076 7.54594 16.9661 8.56274 15.9493C9.61479 14.8973 11.012 14.3184 12.5 14.3184C13.9881 14.3184 15.3853 14.8973 16.4374 15.9493C17.4541 16.9661 18.0293 18.3076 18.0665 19.74C18.0683 19.8217 18.1333 19.8848 18.2149 19.8848H19.3282C19.348 19.8848 19.3676 19.8808 19.3858 19.8731C19.4041 19.8654 19.4206 19.8542 19.4345 19.84C19.4483 19.8258 19.4592 19.809 19.4664 19.7906C19.4736 19.7721 19.4771 19.7524 19.4766 19.7326C19.4581 18.8457 19.2744 17.9829 18.9292 17.1684ZM12.5 12.9082C11.6484 12.9082 10.8468 12.5761 10.2438 11.973C9.64077 11.37 9.30864 10.5685 9.30864 9.7168C9.30864 8.86514 9.64077 8.06357 10.2438 7.46055C10.8468 6.85752 11.6484 6.52539 12.5 6.52539C13.3517 6.52539 14.1533 6.85752 14.7563 7.46055C15.3593 8.06357 15.6915 8.86514 15.6915 9.7168C15.6915 10.5685 15.3593 11.37 14.7563 11.973C14.1533 12.5761 13.3517 12.9082 12.5 12.9082Z" fill="black" fill-opacity="0.45"/>
</svg>
