<svg width="30" height="30" viewBox="0 0 30 30" fill="none" xmlns="http://www.w3.org/2000/svg">
<path d="M15 5C20.5228 5 25 9.47715 25 15C25 20.5228 20.5228 25 15 25C9.47715 25 5 20.5228 5 15C5 9.47715 9.47715 5 15 5ZM14.9756 8C14.581 8.00015 14.2609 8.33093 14.2607 8.73828V9.14453C14.2607 9.18565 14.2262 9.24775 14.1465 9.2627C12.4866 9.57307 11.2139 10.7574 11.2139 12.457C11.2139 13.2489 11.4983 13.9024 12.0186 14.418C12.5279 14.9227 13.248 15.2808 14.1045 15.5381L14.1934 15.5635C14.2331 15.5747 14.2607 15.6126 14.2607 15.6553V19.0068C14.2607 19.036 14.2482 19.0575 14.2363 19.0684C14.2315 19.0727 14.2277 19.0745 14.2256 19.0752C14.2243 19.0756 14.2208 19.0764 14.2148 19.0752C13.4659 18.9116 12.966 18.5003 12.793 17.9287C12.689 17.5856 12.3852 17.2383 11.9424 17.2383H11.7949C11.3388 17.2384 10.8945 17.6571 11.0225 18.2061C11.3513 19.6154 12.5184 20.5581 14.1465 20.7852C14.2242 20.7962 14.2604 20.8568 14.2607 20.8994V21.2617C14.2609 21.6691 14.581 21.9998 14.9756 22C15.3703 22 15.6903 21.6692 15.6904 21.2617V20.8984C15.6907 20.8559 15.7271 20.7945 15.8047 20.7832C16.7825 20.6435 17.5826 20.2504 18.1406 19.6621C18.7009 19.0713 19 18.3014 19 17.4551C18.9999 16.4279 18.5433 15.7064 17.916 15.2051C17.3047 14.7166 16.5295 14.4334 15.8584 14.2402H15.8574L15.7568 14.21C15.718 14.1982 15.6907 14.1618 15.6904 14.1201V11.0088C15.6904 10.9794 15.7027 10.9575 15.7139 10.9473C15.7186 10.943 15.7225 10.9427 15.7236 10.9424C15.7241 10.9422 15.7259 10.9414 15.7305 10.9424C16.4304 11.1078 16.8891 11.5185 17.0557 12.0605C17.1607 12.4022 17.4644 12.747 17.9053 12.7471H18.0225C18.4699 12.7467 18.9163 12.3404 18.7939 11.793C18.4884 10.43 17.3348 9.47369 15.8096 9.23535C15.7275 9.22253 15.6906 9.15809 15.6904 9.11621V8.73828C15.6903 8.35639 15.4091 8.04277 15.0488 8.00488L14.9756 8ZM15.3174 21.334C15.3129 21.3567 15.3065 21.3786 15.2979 21.3994C15.3063 21.3787 15.3119 21.3566 15.3164 21.334L15.3242 21.2617L15.3174 21.334ZM15.6904 16.0098C16.161 16.1629 16.5361 16.3297 16.8027 16.5361C17.1095 16.7738 17.2656 17.0522 17.2656 17.4414C17.2654 18.2195 16.72 18.8427 15.7383 19.0693C15.7323 19.0707 15.7291 19.0698 15.7275 19.0693C15.7254 19.0687 15.7205 19.0667 15.7148 19.0615C15.7029 19.0505 15.6905 19.0292 15.6904 19V16.0098ZM17.5986 17.8066C17.5943 17.8301 17.5873 17.8529 17.582 17.876C17.5881 17.8491 17.5956 17.8223 17.6006 17.7949L17.5986 17.8066ZM15.3564 15.9033C15.3517 15.9021 15.3466 15.902 15.3418 15.9004L15.4531 15.54L15.3564 15.9033ZM15.6543 14.5732L15.7598 14.6055L15.6533 14.5732C15.6442 14.5705 15.6358 14.5658 15.627 14.5625C15.636 14.5659 15.645 14.5704 15.6543 14.5732ZM14.2363 10.9678C14.2475 10.9775 14.2607 10.9991 14.2607 11.0293V13.6641C14.2607 13.6968 14.2464 13.7214 14.2295 13.7344C14.2214 13.7405 14.2142 13.7433 14.209 13.7441C14.2047 13.7448 14.1979 13.7452 14.1875 13.7412C13.4307 13.4437 12.9621 13.0295 12.9619 12.4131C12.962 11.7685 13.3996 11.2013 14.2227 10.9629C14.2255 10.9621 14.2278 10.9619 14.2285 10.9619C14.2287 10.962 14.2316 10.9637 14.2363 10.9678ZM18.1172 12.3594L18.0225 12.3691H18.0215C18.0852 12.3691 18.1455 12.3543 18.2002 12.3301C18.1736 12.3419 18.1463 12.353 18.1172 12.3594ZM18.4375 11.8779L18.4473 11.9746C18.4466 12.0039 18.4415 12.0322 18.4346 12.0596C18.4489 12.0028 18.4508 11.9415 18.4365 11.8779C18.4205 11.8065 18.4022 11.7361 18.3809 11.667C18.4023 11.7361 18.4215 11.8065 18.4375 11.8779ZM16.0146 9.65723C16.0344 9.66158 16.0537 9.66726 16.0732 9.67188C16.04 9.66401 16.0065 9.65652 15.9727 9.64941L16.0146 9.65723Z" fill="#5D676F"/>
</svg>
