<svg width="15" height="21" viewBox="0 0 15 21" fill="none" xmlns="http://www.w3.org/2000/svg">
<path d="M5.18419 1.11035C3.27612 1.11035 1.72806 2.65841 1.72806 4.56648V11.7631C0.666024 12.71 0 14.0924 0 15.6261C0 18.4882 2.32208 20.8103 5.18419 20.8103C8.04629 20.8103 10.3684 18.4882 10.3684 15.6261C10.3684 14.0924 9.70235 12.71 8.64031 11.7631V4.56648C8.64031 2.65841 7.09225 1.11035 5.18419 1.11035ZM7.48827 15.6261C7.48827 16.8969 6.45503 17.9302 5.18419 17.9302C3.91334 17.9302 2.8801 16.8969 2.8801 15.6261C2.8801 14.6576 3.47412 13.8296 4.32016 13.4912V10.1539C4.32016 9.67506 4.70537 9.28984 5.18419 9.28984C5.663 9.28984 6.04822 9.67506 6.04822 10.1539V13.4912C6.89425 13.8332 7.48827 14.6612 7.48827 15.6261Z" fill="black"/>
<path d="M12.3516 0.75C13.3181 0.75 14.1016 1.5335 14.1016 2.5C14.1016 3.4665 13.3181 4.25 12.3516 4.25C11.3851 4.25 10.6016 3.4665 10.6016 2.5C10.6016 1.5335 11.3851 0.75 12.3516 0.75Z" stroke="black" stroke-width="1.5"/>
</svg>
