<svg width="20" height="20" viewBox="0 0 20 20" fill="none" xmlns="http://www.w3.org/2000/svg">
<path d="M10.5049 5.20898C10.2259 4.93037 9.77395 4.93018 9.49512 5.20898L5.21484 9.49023C5.18048 9.52389 5.1491 9.5606 5.12207 9.60059L5.11719 9.60645C5.09372 9.64199 5.07405 9.67944 5.05762 9.71777C5.0536 9.72709 5.05245 9.73755 5.04883 9.74707C5.03666 9.77922 5.02592 9.81145 5.01855 9.84473C5.01541 9.85886 5.01401 9.87326 5.01172 9.8877C5.007 9.91759 5.00385 9.94735 5.00293 9.97754C5.0027 9.98502 5 9.99246 5 10C5 10.0085 5.00264 10.017 5.00293 10.0254C5.00405 10.0562 5.0076 10.0867 5.0127 10.1172C5.01515 10.132 5.01716 10.1466 5.02051 10.1611C5.02652 10.187 5.03502 10.2121 5.04395 10.2373C5.05044 10.2557 5.05555 10.2743 5.06348 10.292C5.07483 10.3173 5.08908 10.3411 5.10352 10.3652C5.11088 10.3775 5.11693 10.3905 5.125 10.4023C5.14017 10.4245 5.15881 10.4441 5.17676 10.4648C5.18948 10.4796 5.20097 10.4952 5.21484 10.5088L9.49512 14.791C9.774 15.0699 10.2259 15.0698 10.5049 14.791C10.7838 14.5121 10.7838 14.0602 10.5049 13.7812L7.43945 10.7148H14.2861C14.6804 10.7146 15 10.3944 15 10C14.9999 9.60573 14.6804 9.28636 14.2861 9.28613H7.43848L10.5049 6.21973C10.7838 5.94077 10.7838 5.48794 10.5049 5.20898Z" fill="#353C40"/>
</svg>
