<svg width="30" height="30" viewBox="0 0 30 30" fill="none" xmlns="http://www.w3.org/2000/svg">
<path d="M11 18.8744L11 19.8942C11 19.9826 11.1132 20.0315 11.1897 19.9774L17.8191 15.3318C17.8754 15.2925 17.921 15.2422 17.9524 15.1847C17.9837 15.1272 18 15.064 18 15C18 14.936 17.9837 14.8728 17.9524 14.8153C17.921 14.7578 17.8754 14.7075 17.8191 14.6682L11.1897 10.0226C11.1118 9.96855 11 10.0174 11 10.1058L11 11.1256C11 11.1903 11.0338 11.2523 11.0897 11.2919L16.3838 14.9993L11.0897 18.7081C11.0338 18.7477 11 18.8097 11 18.8744Z" fill="#575757"/>
</svg>
