<svg width="24" height="24" viewBox="0 0 24 24" fill="none" xmlns="http://www.w3.org/2000/svg">
<path d="M12 21C15.8663 21 19 18.75 19 14.8125C19 13.125 18.4167 10.3125 16.0833 8.0625C16.375 9.75 14.625 10.3125 14.625 10.3125C15.5 7.5 13.1667 3.5625 9.66667 3C10.0832 5.25 10.25 7.5 7.33333 9.75C5.875 10.875 5 12.8201 5 14.8125C5 18.75 8.13367 21 12 21ZM12 19.875C10.0668 19.875 8.5 18.75 8.5 16.7812C8.5 15.9375 8.79167 14.5312 9.95833 13.4062C9.8125 14.25 10.8333 14.8125 10.8333 14.8125C10.3958 13.4062 11.4167 11.1562 13.1667 10.875C12.9578 12 12.875 13.125 14.3333 14.25C15.0625 14.8125 15.5 15.7845 15.5 16.7812C15.5 18.75 13.9332 19.875 12 19.875Z" fill="white"/>
</svg>
