<svg width="34" height="34" viewBox="0 0 34 34" fill="none" xmlns="http://www.w3.org/2000/svg">
<path fill-rule="evenodd" clip-rule="evenodd" d="M20.1875 10.4658C20.7743 10.4658 21.25 10.9415 21.25 11.5283V16.8408H27.0544C27.2298 16.8408 27.4025 16.8843 27.5571 16.9673C27.7116 17.0503 27.8432 17.1703 27.9401 17.3165L31.6983 22.9891C31.8135 23.1631 31.875 23.3672 31.875 23.5759V26.4033C31.875 26.9901 31.3993 27.4658 30.8125 27.4658H27.625C27.625 29.813 25.7222 31.7158 23.375 31.7158C21.0278 31.7158 19.125 29.813 19.125 27.4658H12.75C12.75 29.813 10.8472 31.7158 8.5 31.7158C6.1528 31.7158 4.25 29.813 4.25 27.4658H3.1875C2.6007 27.4658 2.125 26.9901 2.125 26.4033V11.5283C2.125 10.9415 2.6007 10.4658 3.1875 10.4658H20.1875ZM8.5 25.3408C7.3264 25.3408 6.375 26.2922 6.375 27.4658C6.375 28.6394 7.3264 29.5908 8.5 29.5908L8.53513 29.5905C9.69252 29.5718 10.625 28.6277 10.625 27.4658C10.625 26.2922 9.6736 25.3408 8.5 25.3408ZM23.375 25.3408C22.2014 25.3408 21.25 26.2922 21.25 27.4658C21.25 28.6394 22.2014 29.5908 23.375 29.5908L23.4101 29.5905C24.5675 29.5718 25.5 28.6277 25.5 27.4658C25.5 26.2922 24.5486 25.3408 23.375 25.3408ZM26.4838 18.9658H21.25V23.7844C21.8752 23.4228 22.6009 23.2158 23.375 23.2158C24.9481 23.2158 26.3216 24.0705 27.0564 25.3408H29.75V23.896L26.4838 18.9658ZM16.6016 18.9658H11.0234C10.8034 18.9658 10.625 19.1442 10.625 19.3643V20.6924C10.625 20.9124 10.8034 21.0908 11.0234 21.0908H16.6016C16.8216 21.0908 17 20.9124 17 20.6924V19.3643C17 19.1442 16.8216 18.9658 16.6016 18.9658ZM10.2266 14.7158H6.77344C6.5534 14.7158 6.375 14.8942 6.375 15.1143V16.4424C6.375 16.6624 6.5534 16.8408 6.77344 16.8408H10.2266C10.4466 16.8408 10.625 16.6624 10.625 16.4424V15.1143C10.625 14.8942 10.4466 14.7158 10.2266 14.7158Z" fill="#575757"/>
</svg>
