<svg width="33" height="33" viewBox="0 0 33 33" fill="none" xmlns="http://www.w3.org/2000/svg">
<path d="M16.5 10.5381C15.5364 10.5381 14.6309 10.9119 13.9477 11.5951C13.6119 11.9299 13.3457 12.3277 13.1643 12.7657C12.9829 13.2038 12.8899 13.6734 12.8906 14.1475C12.8906 15.111 13.2677 16.0166 13.9477 16.6998C14.2824 17.0355 14.6803 17.3018 15.1183 17.4832C15.5563 17.6646 16.0259 17.7576 16.5 17.7568C17.4636 17.7568 18.3691 17.3798 19.0523 16.6998C19.7355 16.0166 20.1094 15.111 20.1094 14.1475C20.1094 13.1839 19.7355 12.2783 19.0523 11.5951C18.3691 10.9119 17.4636 10.5381 16.5 10.5381ZM27.5408 9.3167C26.9341 7.91768 26.0594 6.65098 24.9659 5.58809C23.8689 4.51559 22.5756 3.66435 21.1567 3.08086C19.6808 2.46855 18.1146 2.15918 16.5 2.15918C14.8854 2.15918 13.3192 2.46855 11.8433 3.07764C10.4156 3.66738 9.13623 4.51172 8.03408 5.58486C6.94135 6.64836 6.0667 7.91491 5.45918 9.31348C4.83076 10.7637 4.51172 12.3041 4.51172 13.8896C4.51172 16.1648 5.05635 18.4304 6.12627 20.6153C6.98672 22.3717 8.18877 24.0829 9.70342 25.7104C12.2912 28.4883 15.0047 30.1866 15.7749 30.641C15.9935 30.7701 16.2429 30.838 16.4968 30.8376C16.7481 30.8376 16.9963 30.7731 17.2187 30.641C17.9889 30.1866 20.7023 28.4883 23.2901 25.7104C24.8048 24.0861 26.0068 22.3717 26.8673 20.6153C27.9437 18.4336 28.4883 16.1713 28.4883 13.8929C28.4883 12.3073 28.1692 10.7669 27.5408 9.3167ZM16.5 19.8193C13.3676 19.8193 10.8281 17.2799 10.8281 14.1475C10.8281 11.015 13.3676 8.47559 16.5 8.47559C19.6324 8.47559 22.1719 11.015 22.1719 14.1475C22.1719 17.2799 19.6324 19.8193 16.5 19.8193Z" fill="#575757"/>
</svg>
