<svg width="33" height="33" viewBox="0 0 33 33" fill="none" xmlns="http://www.w3.org/2000/svg">
<path d="M30.5033 16.2746L17.2292 3.01011C17.1336 2.91434 17.0201 2.83837 16.8951 2.78653C16.7701 2.73469 16.6362 2.70801 16.5009 2.70801C16.3656 2.70801 16.2316 2.73469 16.1066 2.78653C15.9817 2.83837 15.8681 2.91434 15.7726 3.01011L2.49844 16.2746C2.11172 16.6613 1.89258 17.1866 1.89258 17.7344C1.89258 18.872 2.81748 19.7969 3.95508 19.7969H5.35371V29.2619C5.35371 29.8323 5.81455 30.2931 6.38496 30.2931H14.4384V23.0744H18.0478V30.2931H26.6168C27.1872 30.2931 27.648 29.8323 27.648 29.2619V19.7969H29.0467C29.5945 19.7969 30.1198 19.581 30.5065 19.1911C31.309 18.3854 31.309 17.0802 30.5033 16.2746Z" fill="#575757"/>
</svg>
