<svg width="14" height="14" viewBox="0 0 14 14" fill="none" xmlns="http://www.w3.org/2000/svg">
<path d="M6.91578 9.11648C6.92578 9.13006 6.93856 9.14104 6.95316 9.1486C6.96775 9.15615 6.98377 9.16008 7 9.16008C7.01623 9.16008 7.03225 9.15615 7.04684 9.1486C7.06144 9.14104 7.07422 9.13006 7.08422 9.11648L8.58155 7.10369C8.63636 7.02983 8.5869 6.92045 8.49733 6.92045H7.50668V2.11364C7.50668 2.05114 7.45856 2 7.39973 2H6.59759C6.53877 2 6.49064 2.05114 6.49064 2.11364V6.91903H5.50267C5.4131 6.91903 5.36364 7.02841 5.41845 7.10227L6.91578 9.11648ZM11.893 8.61932H11.0909C11.0321 8.61932 10.984 8.67045 10.984 8.73295V10.9205H3.01604V8.73295C3.01604 8.67045 2.96791 8.61932 2.90909 8.61932H2.10695C2.04813 8.61932 2 8.67045 2 8.73295V11.5455C2 11.7969 2.19118 12 2.42781 12H11.5722C11.8088 12 12 11.7969 12 11.5455V8.73295C12 8.67045 11.9519 8.61932 11.893 8.61932Z" fill="black"/>
</svg>
