<svg width="20" height="20" viewBox="0 0 20 20" fill="none" xmlns="http://www.w3.org/2000/svg">
<path d="M16 8C16.5523 8 17 8.44772 17 9V16C17 16.5523 16.5523 17 16 17H4C3.44772 17 3 16.5523 3 16V9C3 8.44772 3.44772 8 4 8H16ZM10.001 10C9.44869 10 9.00098 10.4477 9.00098 11C9.00098 11.3336 9.1649 11.6279 9.41602 11.8096V14.417C9.41619 14.739 9.67794 15 10 15C10.3218 14.9996 10.5828 14.7388 10.583 14.417V11.8115C10.8354 11.63 11.001 11.3346 11.001 11C11.001 10.4479 10.553 10.0003 10.001 10Z" fill="#5A6670"/>
<path d="M12.25 6C12.25 4.75736 11.2426 3.75 10 3.75C8.75736 3.75 7.75 4.75736 7.75 6V8H6.25V6C6.25 3.92893 7.92893 2.25 10 2.25C12.0711 2.25 13.75 3.92893 13.75 6V8H12.25V6Z" fill="#5A6670"/>
</svg>
