<svg width="30" height="30" viewBox="0 0 30 30" fill="none" xmlns="http://www.w3.org/2000/svg">
<path d="M6 7C6 6.44772 6.44772 6 7 6H9V24H7C6.44772 24 6 23.5523 6 23V7Z" fill="#5D676F"/>
<path d="M24 24H10V6H24V24ZM13 18.5C12.7239 18.5 12.5 18.7239 12.5 19C12.5 19.2761 12.7239 19.5 13 19.5H21C21.2761 19.5 21.5 19.2761 21.5 19C21.5 18.7239 21.2761 18.5 21 18.5H13ZM13 15.5C12.7239 15.5 12.5 15.7239 12.5 16C12.5 16.2761 12.7239 16.5 13 16.5H21C21.2761 16.5 21.5 16.2761 21.5 16C21.5 15.7239 21.2761 15.5 21 15.5H13ZM12.5 9C12.2239 9 12 9.22386 12 9.5V12.5C12 12.7761 12.2239 13 12.5 13H21.5C21.7761 13 22 12.7761 22 12.5V9.5C22 9.22386 21.7761 9 21.5 9H12.5Z" fill="#5D676F"/>
</svg>
