<svg width="24" height="24" viewBox="0 0 24 24" fill="none" xmlns="http://www.w3.org/2000/svg">
<path d="M15.5 20.3V23H13.7V20.3C13.7 19.31 12.89 18.5 11.9 18.5H9.2C6.68 18.5 4.7 16.52 4.7 14C4.7 12.92 5.06 12.02 5.69 11.21C3.62 10.85 2 8.96 2 6.8C2 6.17 2.18 5.54 2.36 5H4.52C4.07 5.45 3.8 6.08 3.8 6.8C3.8 8.33 4.97 9.5 6.5 9.5H9.2V11.3C7.67 11.3 6.5 12.47 6.5 14C6.5 15.53 7.67 16.7 9.2 16.7H11.9C13.88 16.7 15.5 18.32 15.5 20.3ZM16.31 11.21C18.38 10.85 20 8.96 20 6.8C20 6.17 19.82 5.54 19.64 5H17.48C17.93 5.45 18.2 6.08 18.2 6.8C18.2 8.33 17.03 9.5 15.5 9.5H14.42C14.51 9.77 14.6 10.04 14.6 10.4C14.6 11.93 13.43 13.1 11.9 13.1V14.9C14.42 14.9 16.4 16.88 16.4 19.4V23H18.2V19.4C18.2 16.97 16.85 14.9 14.78 13.82C15.59 13.19 16.13 12.29 16.31 11.21Z" fill="white"/>
</svg>
