<svg width="20" height="20" viewBox="0 0 20 20" fill="none" xmlns="http://www.w3.org/2000/svg">
<path d="M13.4023 6.64453H12.4863C12.2871 6.64453 12.0976 6.74023 11.9805 6.9043L8.91014 11.1621L7.51952 9.23242C7.40233 9.07031 7.21483 8.97266 7.01366 8.97266H6.09764C5.97069 8.97266 5.89647 9.11719 5.97069 9.2207L8.40428 12.5957C8.46177 12.6759 8.53756 12.7413 8.62536 12.7864C8.71317 12.8315 8.81046 12.8551 8.90917 12.8551C9.00788 12.8551 9.10516 12.8315 9.19297 12.7864C9.28077 12.7413 9.35656 12.6759 9.41405 12.5957L13.5273 6.89258C13.6035 6.78906 13.5293 6.64453 13.4023 6.64453Z" fill="#818181"/>
<path d="M9.75 1C4.91797 1 1 4.91797 1 9.75C1 14.582 4.91797 18.5 9.75 18.5C14.582 18.5 18.5 14.582 18.5 9.75C18.5 4.91797 14.582 1 9.75 1ZM9.75 17.0156C5.73828 17.0156 2.48438 13.7617 2.48438 9.75C2.48438 5.73828 5.73828 2.48438 9.75 2.48438C13.7617 2.48438 17.0156 5.73828 17.0156 9.75C17.0156 13.7617 13.7617 17.0156 9.75 17.0156Z" fill="#818181"/>
</svg>
