<svg width="10" height="15" viewBox="0 0 10 15" fill="none" xmlns="http://www.w3.org/2000/svg">
<path d="M0.237251 7.99875L8.91857 14.9662C8.94125 14.9846 8.96851 14.996 8.99722 14.9991C9.02593 15.0023 9.05492 14.997 9.08086 14.984C9.10681 14.971 9.12865 14.9507 9.14388 14.9255C9.15912 14.9003 9.16713 14.8712 9.16699 14.8415L9.16699 13.3119C9.16699 13.2149 9.1227 13.1219 9.04952 13.0626L2.11679 7.50008L9.04952 1.93759C9.12462 1.87823 9.16699 1.78522 9.16699 1.68826L9.16699 0.158627C9.16699 0.0260458 9.01871 -0.0471706 8.91857 0.0339613L0.237251 7.00142C0.163464 7.06056 0.103775 7.13621 0.0627196 7.22262C0.0216649 7.30903 0.000325493 7.40393 0.000325501 7.50008C0.000325509 7.59624 0.0216649 7.69113 0.0627197 7.77754C0.103775 7.86395 0.163464 7.93961 0.237251 7.99875Z" fill="black"/>
</svg>
