<svg width="19" height="19" viewBox="0 0 19 19" fill="none" xmlns="http://www.w3.org/2000/svg">
<path d="M10.2589 9.44498L8.8223 11.3271L8.06335 10.3329C8.04953 10.3148 8.03188 10.3001 8.01172 10.29C7.99157 10.2799 7.96944 10.2747 7.94702 10.2747C7.9246 10.2747 7.90247 10.2799 7.88231 10.29C7.86216 10.3001 7.8445 10.3148 7.83068 10.3329L5.98778 12.7463C5.97073 12.7687 5.96016 12.7955 5.95726 12.8238C5.95436 12.8521 5.95926 12.8806 5.97139 12.9061C5.98353 12.9316 6.00241 12.9531 6.02588 12.9682C6.04935 12.9832 6.07647 12.9911 6.10412 12.9911H12.8977C13.0214 12.9911 13.0898 12.845 13.0141 12.7463L10.4935 9.44498C10.4795 9.42681 10.4616 9.41213 10.4413 9.40204C10.421 9.39195 10.3988 9.38671 10.3762 9.38671C10.3537 9.38671 10.3314 9.39195 10.3111 9.40204C10.2908 9.41213 10.273 9.42681 10.2589 9.44498ZM6.69318 8.17188C6.69318 8.37316 6.771 8.56619 6.90952 8.70852C7.04804 8.85085 7.23592 8.9308 7.43182 8.9308C7.62772 8.9308 7.81559 8.85085 7.95411 8.70852C8.09263 8.56619 8.17045 8.37316 8.17045 8.17188C8.17045 7.97059 8.09263 7.77756 7.95411 7.63523C7.81559 7.4929 7.62772 7.41295 7.43182 7.41295C7.23592 7.41295 7.04804 7.4929 6.90952 7.63523C6.771 7.77756 6.69318 7.97059 6.69318 8.17188ZM15.8264 5.26138L11.8526 1.17835C11.7418 1.06451 11.5922 1 11.4352 1H3.59091C3.26406 1 3 1.27132 3 1.60714V17.3929C3 17.7287 3.26406 18 3.59091 18H15.4091C15.7359 18 16 17.7287 16 17.3929V5.69208C16 5.5308 15.9372 5.37522 15.8264 5.26138ZM14.6372 5.97098H11.1619V2.40022L14.6372 5.97098ZM14.6705 16.6339H4.32955V2.36607H9.90625V6.46429C9.90625 6.67563 9.98796 6.87832 10.1334 7.02776C10.2789 7.1772 10.4761 7.26116 10.6818 7.26116H14.6705V16.6339Z" fill="#333333"/>
</svg>
