<svg width="24" height="23" viewBox="0 0 24 23" fill="none" xmlns="http://www.w3.org/2000/svg">
<path d="M12 22C9.71667 22 7.81267 21.2167 6.288 19.65C4.76333 18.0833 4.00067 16.1333 4 13.8C4 12.7667 4.23333 11.7333 4.7 10.7C5.16667 9.66668 5.75 8.67501 6.45 7.72501C7.15 6.77501 7.90833 5.88334 8.725 5.05001C9.54167 4.21668 10.3 3.49168 11 2.87501C11.1333 2.74168 11.2877 2.64601 11.463 2.58801C11.6383 2.53001 11.8173 2.50068 12 2.50001C12.1827 2.49934 12.362 2.52868 12.538 2.58801C12.714 2.64734 12.868 2.74301 13 2.87501C13.7 3.49168 14.4583 4.21668 15.275 5.05001C16.0917 5.88334 16.85 6.77501 17.55 7.72501C18.25 8.67501 18.8333 9.66668 19.3 10.7C19.7667 11.7333 20 12.7667 20 13.8C20 16.1333 19.2377 18.0833 17.713 19.65C16.1883 21.2167 14.284 22 12 22ZM14.5 18C14.9167 18 15.271 17.8543 15.563 17.563C15.855 17.2717 16.0007 16.9173 16 16.5C15.9993 16.0827 15.8537 15.7287 15.563 15.438C15.2723 15.1473 14.918 15.0013 14.5 15C14.082 14.9987 13.728 15.1447 13.438 15.438C13.148 15.7313 13.002 16.0853 13 16.5C12.998 16.9147 13.144 17.269 13.438 17.563C13.732 17.857 14.086 18.0027 14.5 18ZM8.75 17.25C8.95 17.45 9.18333 17.55 9.45 17.55C9.71667 17.55 9.95 17.45 10.15 17.25L15.25 12.15C15.45 11.95 15.55 11.7167 15.55 11.45C15.55 11.1833 15.45 10.95 15.25 10.75C15.05 10.55 14.8127 10.45 14.538 10.45C14.2633 10.45 14.0257 10.55 13.825 10.75L8.75 15.825C8.55 16.025 8.45 16.2627 8.45 16.538C8.45 16.8133 8.55 17.0507 8.75 17.25ZM9.5 13C9.91667 13 10.271 12.8543 10.563 12.563C10.855 12.2717 11.0007 11.9173 11 11.5C10.9993 11.0827 10.8537 10.7287 10.563 10.438C10.2723 10.1473 9.918 10.0013 9.5 10C9.082 9.99868 8.728 10.1447 8.438 10.438C8.148 10.7313 8.002 11.0853 8 11.5C7.998 11.9147 8.144 12.269 8.438 12.563C8.732 12.857 9.086 13.0027 9.5 13Z" fill="black"/>
</svg>
