<svg width="30" height="30" viewBox="0 0 30 30" fill="none" xmlns="http://www.w3.org/2000/svg">
<path d="M19 11.1256V10.1058C19 10.0174 18.8868 9.96855 18.8103 10.0226L12.1809 14.6682C12.1246 14.7075 12.079 14.7578 12.0476 14.8153C12.0163 14.8728 12 14.936 12 15C12 15.064 12.0163 15.1272 12.0476 15.1847C12.079 15.2422 12.1246 15.2925 12.1809 15.3318L18.8103 19.9774C18.8882 20.0315 19 19.9826 19 19.8942V18.8744C19 18.8097 18.9662 18.7477 18.9103 18.7081L13.6162 15.0007L18.9103 11.2919C18.9662 11.2523 19 11.1903 19 11.1256Z" fill="#575757"/>
</svg>
