<svg width="20" height="20" viewBox="0 0 20 20" fill="none" xmlns="http://www.w3.org/2000/svg">
<path fill-rule="evenodd" clip-rule="evenodd" d="M10 1C14.9701 1 19 5.02991 19 10C19 14.9701 14.9701 19 10 19C5.02991 19 1 14.9701 1 10C1 5.02991 5.02991 1 10 1ZM12.571 6.52094L12.5686 6.52224L10 9.09086L7.43138 6.52224L7.4297 6.52106L7.42664 6.52224L6.52222 7.42664L6.52106 7.42831L6.52126 7.43016L6.52224 7.43137L9.09086 10L6.52224 12.5687L6.52106 12.5703L6.52224 12.5734L7.42664 13.4778L7.42831 13.479L7.43137 13.4778L10 10.9091L12.5687 13.4778L12.5703 13.4789L12.5734 13.4778L13.4778 12.5734L13.479 12.5717L13.4788 12.5698L13.4778 12.5686L10.9091 10L13.4778 7.43138L13.4789 7.4297L13.4778 7.42664L12.5734 6.52222L12.571 6.52094Z" fill="#818181"/>
</svg>
