<svg width="20" height="20" viewBox="0 0 20 20" fill="none" xmlns="http://www.w3.org/2000/svg">
<path d="M9.49512 5.20898C9.77408 4.93037 10.226 4.93018 10.5049 5.20898L14.7852 9.49023C14.8195 9.52389 14.8509 9.5606 14.8779 9.60059L14.8828 9.60645C14.9063 9.64199 14.9259 9.67944 14.9424 9.71777C14.9464 9.72709 14.9475 9.73755 14.9512 9.74707C14.9633 9.77922 14.9741 9.81145 14.9814 9.84473C14.9846 9.85886 14.986 9.87326 14.9883 9.8877C14.993 9.91759 14.9962 9.94735 14.9971 9.97754C14.9973 9.98502 15 9.99246 15 10C15 10.0085 14.9974 10.017 14.9971 10.0254C14.9959 10.0562 14.9924 10.0867 14.9873 10.1172C14.9849 10.132 14.9828 10.1466 14.9795 10.1611C14.9735 10.187 14.965 10.2121 14.9561 10.2373C14.9496 10.2557 14.9444 10.2743 14.9365 10.292C14.9252 10.3173 14.9109 10.3411 14.8965 10.3652C14.8891 10.3775 14.8831 10.3905 14.875 10.4023C14.8598 10.4245 14.8412 10.4441 14.8232 10.4648C14.8105 10.4796 14.799 10.4952 14.7852 10.5088L10.5049 14.791C10.226 15.0699 9.77408 15.0698 9.49512 14.791C9.21617 14.5121 9.21617 14.0602 9.49512 13.7812L12.5605 10.7148H5.71387C5.31957 10.7146 5 10.3944 5 10C5.00011 9.60573 5.31964 9.28636 5.71387 9.28613H12.5615L9.49512 6.21973C9.21617 5.94077 9.21617 5.48794 9.49512 5.20898Z" fill="#353C40"/>
</svg>
