<svg width="24" height="23" viewBox="0 0 24 23" fill="none" xmlns="http://www.w3.org/2000/svg">
<path d="M12 22C9.71667 22 7.81267 21.1966 6.288 19.5897C4.76333 17.9829 4.00067 15.9829 4 13.5897C4 12.5299 4.23333 11.4701 4.7 10.4103C5.16667 9.35043 5.75 8.33334 6.45 7.35898C7.15 6.38462 7.90833 5.47009 8.725 4.61539C9.54167 3.76069 10.3 3.0171 11 2.38463C11.1333 2.24787 11.2877 2.14975 11.463 2.09027C11.6383 2.03078 11.8173 2.0007 12 2.00001C12.1827 1.99933 12.362 2.02941 12.538 2.09027C12.714 2.15112 12.868 2.24924 13 2.38463C13.7 3.0171 14.4583 3.76069 15.275 4.61539C16.0917 5.47009 16.85 6.38462 17.55 7.35898C18.25 8.33334 18.8333 9.35043 19.3 10.4103C19.7667 11.4701 20 12.5299 20 13.5897C20 15.9829 19.2377 17.9829 17.713 19.5897C16.1883 21.1966 14.284 22 12 22ZM14.5 17.8974C14.9167 17.8974 15.271 17.748 15.563 17.4492C15.855 17.1504 16.0007 16.787 16 16.359C15.9993 15.9309 15.8537 15.5679 15.563 15.2697C15.2723 14.9716 14.918 14.8219 14.5 14.8205C14.082 14.8191 13.728 14.9689 13.438 15.2697C13.148 15.5706 13.002 15.9337 13 16.359C12.998 16.7843 13.144 17.1477 13.438 17.4492C13.732 17.7508 14.086 17.9002 14.5 17.8974ZM8.75 17.1282C8.95 17.3333 9.18333 17.4359 9.45 17.4359C9.71667 17.4359 9.95 17.3333 10.15 17.1282L15.25 11.8974C15.45 11.6923 15.55 11.453 15.55 11.1795C15.55 10.906 15.45 10.6667 15.25 10.4615C15.05 10.2564 14.8127 10.1539 14.538 10.1539C14.2633 10.1539 14.0257 10.2564 13.825 10.4615L8.75 15.6667C8.55 15.8718 8.45 16.1156 8.45 16.398C8.45 16.6803 8.55 16.9238 8.75 17.1282ZM9.5 12.7692C9.91667 12.7692 10.271 12.6198 10.563 12.321C10.855 12.0222 11.0007 11.6588 11 11.2308C10.9993 10.8027 10.8537 10.4397 10.563 10.1415C10.2723 9.84342 9.918 9.69368 9.5 9.69231C9.082 9.69095 8.728 9.84069 8.438 10.1415C8.148 10.4424 8.002 10.8055 8 11.2308C7.998 11.6561 8.144 12.0195 8.438 12.321C8.732 12.6226 9.086 12.772 9.5 12.7692Z" fill="white"/>
</svg>
